<svg class="fn__svg fn__svg_megaphone " xmlns="http://www.w3.org/2000/svg" fill="#fff" width="512.000000pt" height="512.000000pt" viewBox="0 0 512.000000 512.000000" preserveAspectRatio="xMidYMid meet">
<g transform="translate(0.000000,512.000000) scale(0.100000,-0.100000)" stroke="none">
<path d="M4294 5111 c-50 -13 -116 -50 -164 -92 -92 -81 -299 -248 -415 -335
-526 -396 -990 -611 -1500 -698 -251 -43 -339 -48 -950 -56 -673 -8 -646 -5
-810 -85 -225 -109 -386 -317 -436 -561 -19 -92 -20 -129 -16 -608 4 -564 3
-552 72 -703 83 -179 218 -315 397 -397 104 -49 177 -66 306 -73 l112 -6 0
-531 c0 -439 3 -542 15 -589 68 -262 317 -418 586 -367 131 25 266 124 328
239 17 32 117 310 222 617 105 308 194 563 199 568 11 11 181 -26 330 -71 173
-52 328 -115 505 -207 309 -158 561 -332 989 -681 160 -131 197 -149 306 -150
76 0 91 3 145 32 187 98 330 360 439 804 223 904 220 2259 -7 3149 -133 522
-322 795 -557 806 -36 2 -79 0 -96 -5z m133 -336 c102 -106 207 -390 277 -746
213 -1076 121 -2612 -193 -3237 -41 -81 -115 -172 -141 -172 -26 0 -101 92
-144 179 -107 211 -190 536 -246 955 -24 177 -24 176 -6 176 30 0 195 92 258
144 94 78 162 165 218 281 103 213 117 422 41 642 -74 215 -252 406 -457 493
-35 15 -67 29 -70 32 -7 7 20 214 52 398 52 306 127 559 216 732 46 91 110
168 140 168 6 0 31 -20 55 -45z m-643 -497 c-162 -631 -208 -1641 -113 -2463
30 -260 85 -567 129 -714 5 -19 8 -36 6 -38 -2 -2 -51 30 -110 71 -114 80
-339 216 -471 286 -428 224 -907 349 -1443 376 l-142 7 0 913 0 914 23 0 c12
0 90 5 172 10 691 47 1222 230 1809 627 83 56 154 102 157 102 4 1 -4 -41 -17
-91z m-2444 -1563 l0 -915 -292 0 c-226 0 -308 4 -357 15 -186 44 -341 204
-380 393 -15 73 -15 942 0 1014 40 190 192 347 384 394 34 8 148 13 348 13
l297 1 0 -915z m2681 436 c166 -123 251 -348 205 -545 -22 -93 -76 -192 -142
-260 -51 -52 -140 -114 -149 -104 -3 2 -8 126 -11 274 -8 319 3 684 20 684 6
0 41 -22 77 -49z m-2198 -1658 c59 -3 107 -10 107 -15 0 -17 -357 -1053 -374
-1086 -23 -45 -86 -84 -145 -90 -89 -8 -167 35 -202 113 -17 37 -19 77 -19
563 l0 522 263 0 c145 0 312 -3 370 -7z"></path>
</g>
</svg>