<svg class="fn__svg fn__svg_lock " xmlns="http://www.w3.org/2000/svg" fill="#139bfd" width="512.000000pt" height="512.000000pt" viewBox="0 0 512.000000 512.000000" preserveAspectRatio="xMidYMid meet">
<g transform="translate(0.000000,512.000000) scale(0.100000,-0.100000)" stroke="none">
<path d="M2320 4975 c-248 -42 -475 -159 -655 -340 -199 -199 -324 -455 -355
-730 -5 -49 -10 -248 -10 -441 l0 -351 -92 -6 c-53 -3 -121 -15 -158 -27 -157
-52 -304 -175 -377 -316 -83 -160 -78 -81 -78 -1144 0 -889 1 -949 18 -1005
34 -109 95 -213 172 -289 80 -80 150 -125 257 -164 l73 -27 1400 -3 c1572 -3
1474 -7 1628 71 117 59 228 171 285 288 75 152 73 115 70 1162 l-3 932 -27 73
c-39 108 -84 178 -169 262 -120 120 -281 190 -441 190 l-68 0 0 373 c0 422 -8
504 -65 675 -143 425 -508 740 -949 817 -107 18 -348 19 -456 0z m428 -321
c329 -67 586 -306 689 -641 l27 -88 4 -407 3 -408 -926 0 -927 0 5 398 c4 454
9 490 92 657 126 254 357 433 635 490 93 19 304 18 398 -1z m1233 -1895 c72
-34 134 -96 168 -168 l26 -56 0 -915 0 -915 -26 -55 c-36 -77 -77 -121 -151
-161 l-63 -34 -1385 0 -1385 0 -55 26 c-70 33 -132 95 -167 167 l-28 57 0 915
0 915 27 55 c37 75 111 145 184 175 l59 25 1370 -3 1370 -2 56 -26z"></path>
<path d="M2466 2038 c-75 -44 -76 -51 -76 -416 0 -370 1 -374 77 -419 79 -46
171 -21 218 58 19 32 20 52 20 359 0 290 -2 328 -17 357 -42 76 -147 105 -222
61z"></path>
</g>
</svg>