<svg class="fn__svg fn__svg_paperclip " xmlns="http://www.w3.org/2000/svg" fill="#fff" width="512.000000pt" height="512.000000pt" viewBox="0 0 512.000000 512.000000" preserveAspectRatio="xMidYMid meet">
<g transform="translate(0.000000,512.000000) scale(0.100000,-0.100000)" stroke="none">
<path d="M3395 4951 c-123 -22 -286 -76 -397 -132 -206 -103 -171 -70 -1505
-1403 -1100 -1100 -1248 -1251 -1299 -1330 -232 -359 -257 -780 -70 -1161 161
-327 454 -553 816 -631 102 -22 341 -25 440 -5 175 35 356 114 493 217 118 89
1712 1701 1738 1757 39 87 11 186 -69 242 -37 25 -53 30 -105 30 -47 0 -71 -5
-96 -22 -19 -12 -398 -389 -842 -838 -444 -449 -833 -837 -866 -862 -71 -56
-197 -117 -289 -140 -93 -23 -275 -22 -369 1 -151 37 -317 141 -415 259 -60
73 -133 215 -157 307 -22 82 -24 290 -4 370 22 88 64 182 114 256 33 50 383
405 1254 1275 1278 1276 1267 1266 1438 1345 402 186 875 106 1193 -200 174
-168 277 -364 318 -606 46 -277 -31 -587 -201 -810 -32 -42 -581 -598 -1240
-1255 -1175 -1171 -1184 -1180 -1195 -1231 -33 -152 98 -274 250 -234 41 11
139 105 1213 1178 642 642 1193 1197 1224 1234 171 204 283 444 329 703 23
133 23 356 0 490 -108 619 -592 1100 -1211 1200 -124 20 -363 18 -490 -4z"></path>
<path d="M3415 4240 c-137 -15 -282 -67 -392 -140 -67 -45 -2280 -2256 -2304
-2302 -53 -102 10 -238 124 -269 47 -12 91 -8 139 15 19 9 536 519 1162 1145
1207 1208 1156 1160 1292 1196 211 55 444 -56 539 -256 92 -196 57 -389 -103
-561 -98 -105 -113 -163 -67 -255 45 -90 147 -133 241 -103 52 17 146 116 208
218 259 432 95 998 -354 1222 -154 77 -320 108 -485 90z"></path>
</g>
</svg>