<svg xmlns="http://www.w3.org/2000/svg"
 width="512.000000pt" height="512.000000pt" viewBox="0 0 512.000000 512.000000"
 preserveAspectRatio="xMidYMid meet">

<g transform="translate(0.000000,512.000000) scale(0.100000,-0.100000)"
 stroke="none">
<path d="M905 4419 c-226 -14 -357 -61 -463 -166 -44 -43 -72 -83 -97 -135
-62 -134 -67 -176 -72 -637 -6 -515 5 -634 73 -778 40 -83 132 -176 218 -218
152 -74 305 -90 811 -82 344 5 432 12 528 43 27 9 51 14 53 11 3 -3 -2 -47
-11 -97 -103 -598 -510 -1105 -1065 -1325 -126 -50 -150 -67 -175 -129 -34
-81 18 -180 108 -206 39 -10 52 -9 123 15 101 34 276 117 381 183 281 174 538
442 701 731 142 250 235 542 261 811 14 152 22 1064 11 1273 -17 301 -56 425
-172 541 -110 109 -231 150 -493 166 -184 11 -531 11 -720 -1z m710 -319 c232
-16 292 -46 330 -166 16 -52 19 -107 22 -453 6 -510 -5 -611 -74 -683 -59 -61
-187 -77 -613 -77 -426 0 -554 16 -613 77 -69 72 -80 173 -74 683 3 346 6 401
22 453 36 116 103 152 309 166 166 11 532 11 691 0z"/>
<path d="M3465 4419 c-226 -14 -357 -61 -463 -166 -44 -43 -72 -83 -97 -135
-62 -134 -67 -176 -72 -637 -6 -515 5 -634 73 -778 40 -83 132 -176 218 -218
152 -74 305 -90 811 -82 344 5 432 12 528 43 27 9 51 14 53 11 3 -3 -2 -47
-11 -97 -103 -598 -510 -1105 -1065 -1325 -126 -50 -150 -67 -175 -129 -34
-81 18 -180 108 -206 39 -10 52 -9 123 15 101 34 276 117 381 183 281 174 538
442 701 731 142 250 235 542 261 811 14 152 22 1064 11 1273 -17 301 -56 425
-172 541 -110 109 -231 150 -493 166 -184 11 -531 11 -720 -1z m710 -319 c232
-16 292 -46 330 -166 16 -52 19 -107 22 -453 6 -510 -5 -611 -74 -683 -59 -61
-187 -77 -613 -77 -426 0 -554 16 -613 77 -69 72 -80 173 -74 683 3 346 6 401
22 453 36 116 103 152 309 166 166 11 532 11 691 0z"/>
</g>
</svg>